<mxfile host="app.diagrams.net" modified="2022-05-03T00:30:57.257Z" agent="5.0 (Windows NT 10.0; Win64; x64) AppleWebKit/537.36 (KHTML, like Gecko) Chrome/100.0.4896.127 Safari/537.36 Edg/100.0.1185.50" etag="isQgaIgUY75wAJF15-AM" version="17.5.0" type="github">
  <diagram id="WjNA7vaOun73aMpNqNlL" name="basic layout">
    <mxGraphModel dx="1390" dy="1886" grid="1" gridSize="10" guides="1" tooltips="1" connect="1" arrows="1" fold="1" page="1" pageScale="1" pageWidth="850" pageHeight="1100" background="none" math="0" shadow="0">
      <root>
        <mxCell id="0" />
        <mxCell id="1" parent="0" />
        <mxCell id="lmINtUk09G0ob3XxliYG-23" value="Window Title" style="strokeWidth=1;shadow=0;dashed=0;align=center;html=1;shape=mxgraph.mockup.containers.window;align=left;verticalAlign=top;spacingLeft=8;strokeColor2=#008cff;strokeColor3=#c4c4c4;fontColor=#666666;mainText=;fontSize=17;labelBackgroundColor=none;fontFamily=Helvetica;gradientColor=#05A3FF;opacity=70;" vertex="1" parent="1">
          <mxGeometry x="20" y="-120" width="790" height="830" as="geometry" />
        </mxCell>
        <mxCell id="lmINtUk09G0ob3XxliYG-5" value="" style="whiteSpace=wrap;html=1;shape=mxgraph.basic.isocube;isoAngle=15;fillColor=#f8cecc;strokeColor=#b85450;perimeterSpacing=0;rotation=30;" vertex="1" parent="1">
          <mxGeometry x="270" y="195" width="100" height="100" as="geometry" />
        </mxCell>
        <mxCell id="lmINtUk09G0ob3XxliYG-2" value="" style="verticalLabelPosition=bottom;verticalAlign=top;html=1;shape=mxgraph.basic.rect;fillColor2=none;strokeWidth=1;size=20;indent=5;fillColor=#dae8fc;strokeColor=#6c8ebf;gradientColor=#05A3FF;opacity=70;perimeterSpacing=0;" vertex="1" parent="1">
          <mxGeometry x="190" y="140" width="120" height="60" as="geometry" />
        </mxCell>
        <mxCell id="lmINtUk09G0ob3XxliYG-4" value="" style="whiteSpace=wrap;html=1;shape=mxgraph.basic.pentagon" vertex="1" parent="1">
          <mxGeometry x="310" y="110" width="100" height="90" as="geometry" />
        </mxCell>
        <mxCell id="lmINtUk09G0ob3XxliYG-6" value="ahh i understand&lt;br&gt;" style="shape=cylinder3;whiteSpace=wrap;html=1;boundedLbl=1;backgroundOutline=1;size=15;lid=0;fontFamily=Helvetica;fillColor=#ffe6cc;strokeColor=#d79b00;" vertex="1" parent="1">
          <mxGeometry x="500" y="280" width="60" height="80" as="geometry" />
        </mxCell>
        <mxCell id="lmINtUk09G0ob3XxliYG-21" value="Text" style="text;html=1;resizable=0;autosize=1;align=center;verticalAlign=middle;points=[];fillColor=none;strokeColor=none;rounded=0;fontFamily=Helvetica;opacity=70;" vertex="1" parent="1">
          <mxGeometry x="540" y="360" width="40" height="20" as="geometry" />
        </mxCell>
        <mxCell id="lmINtUk09G0ob3XxliYG-22" value="triangle&lt;br style=&quot;font-size: 47px;&quot;&gt;" style="text;html=1;resizable=0;autosize=1;align=center;verticalAlign=middle;points=[];fillColor=none;strokeColor=none;rounded=0;fontFamily=Helvetica;opacity=70;strokeWidth=2;fontSize=47;" vertex="1" parent="1">
          <mxGeometry x="280" y="50" width="170" height="60" as="geometry" />
        </mxCell>
        <mxCell id="lmINtUk09G0ob3XxliYG-24" value="Window Title" style="strokeWidth=1;shadow=0;dashed=0;align=center;html=1;shape=mxgraph.mockup.containers.window;align=left;verticalAlign=top;spacingLeft=8;strokeColor2=#008cff;strokeColor3=#c4c4c4;fontColor=#666666;mainText=;fontSize=17;labelBackgroundColor=none;fontFamily=Helvetica;gradientColor=#05A3FF;opacity=70;" vertex="1" parent="1">
          <mxGeometry x="10" y="-160" width="790" height="830" as="geometry" />
        </mxCell>
      </root>
    </mxGraphModel>
  </diagram>
</mxfile>
